<svg xmlns="http://www.w3.org/2000/svg" viewBox="0 0 900.00 426.49" role="img" aria-label="Aetas Partners">
  <title>Aetas Partners</title>
  <g transform="translate(300.00 10)">
<g fill="none" stroke-width="14" stroke-linecap="round">
  <circle cx="198" cy="197" r="92" stroke="#005357"/>
  <circle cx="152" cy="102" r="92" stroke="#ffffff"/>
  <circle cx="95" cy="193" r="92" stroke="#00aabb"/>
  <path d="M 157.25 279.48 A 92 92 0 0 1 131.49 260.57" stroke="#005357"/>
  <path d="M 136.62 128.47 A 92 92 0 0 1 163.77 111.61" stroke="#005357"/>
</g>
  </g>
  <g transform="translate(10.00 340.00) scale(0.095393)">
  <path d="M494 142H203L153 0H34L283 696H415L664 0H544ZM462 235 349 558 235 235Z" transform="translate(0.00 697) scale(1 -1)" fill="#ffffff"/>
  <path d="M189 603V399H429V306H189V93H459V0H75V696H459V603Z" transform="translate(767.00 697) scale(1 -1)" fill="#ffffff"/>
  <path d="M524 695V602H339V0H225V602H39V695Z" transform="translate(1361.00 697) scale(1 -1)" fill="#ffffff"/>
  <path d="M494 142H203L153 0H34L283 696H415L664 0H544ZM462 235 349 558 235 235Z" transform="translate(1995.00 697) scale(1 -1)" fill="#ffffff"/>
  <path d="M58 192H180Q184 147 215.5 118.0Q247 89 304 89Q363 89 396.0 117.5Q429 146 429 191Q429 226 408.5 248.0Q388 270 357.5 282.0Q327 294 273 308Q205 326 162.5 344.5Q120 363 90.0 402.0Q60 441 60 506Q60 566 90.0 611.0Q120 656 174.0 680.0Q228 704 299 704Q400 704 464.5 653.5Q529 603 536 515H410Q407 553 374.0 580.0Q341 607 287 607Q238 607 207.0 582.0Q176 557 176 510Q176 478 195.5 457.5Q215 437 245.0 425.0Q275 413 327 399Q396 380 439.5 361.0Q483 342 513.5 302.5Q544 263 544 197Q544 144 515.5 97.0Q487 50 432.5 21.5Q378 -7 304 -7Q234 -7 178.0 17.5Q122 42 90.0 87.0Q58 132 58 192Z" transform="translate(2762.00 697) scale(1 -1)" fill="#ffffff"/>
  <path d="M315 282H189V0H75V695H315Q395 695 450.5 667.5Q506 640 533.5 593.0Q561 546 561 488Q561 435 536.0 388.0Q511 341 456.0 311.5Q401 282 315 282ZM444 488Q444 602 315 602H189V375H315Q380 375 412.0 404.5Q444 434 444 488Z" transform="translate(3766.00 697) scale(1 -1)" fill="#ffffff"/>
  <path d="M494 142H203L153 0H34L283 696H415L664 0H544ZM462 235 349 558 235 235Z" transform="translate(4431.00 697) scale(1 -1)" fill="#ffffff"/>
  <path d="M436 0 276 278H189V0H75V695H315Q395 695 450.5 667.0Q506 639 533.5 592.0Q561 545 561 487Q561 419 521.5 363.5Q482 308 400 288L572 0ZM189 369H315Q379 369 411.5 401.0Q444 433 444 487Q444 541 412.0 571.5Q380 602 315 602H189Z" transform="translate(5198.00 697) scale(1 -1)" fill="#ffffff"/>
  <path d="M524 695V602H339V0H225V602H39V695Z" transform="translate(5900.00 697) scale(1 -1)" fill="#ffffff"/>
  <path d="M646 0H532L189 519V0H75V696H189L532 178V696H646Z" transform="translate(6534.00 697) scale(1 -1)" fill="#ffffff"/>
  <path d="M189 603V399H429V306H189V93H459V0H75V696H459V603Z" transform="translate(7325.00 697) scale(1 -1)" fill="#ffffff"/>
  <path d="M436 0 276 278H189V0H75V695H315Q395 695 450.5 667.0Q506 639 533.5 592.0Q561 545 561 487Q561 419 521.5 363.5Q482 308 400 288L572 0ZM189 369H315Q379 369 411.5 401.0Q444 433 444 487Q444 541 412.0 571.5Q380 602 315 602H189Z" transform="translate(7919.00 697) scale(1 -1)" fill="#ffffff"/>
  <path d="M58 192H180Q184 147 215.5 118.0Q247 89 304 89Q363 89 396.0 117.5Q429 146 429 191Q429 226 408.5 248.0Q388 270 357.5 282.0Q327 294 273 308Q205 326 162.5 344.5Q120 363 90.0 402.0Q60 441 60 506Q60 566 90.0 611.0Q120 656 174.0 680.0Q228 704 299 704Q400 704 464.5 653.5Q529 603 536 515H410Q407 553 374.0 580.0Q341 607 287 607Q238 607 207.0 582.0Q176 557 176 510Q176 478 195.5 457.5Q215 437 245.0 425.0Q275 413 327 399Q396 380 439.5 361.0Q483 342 513.5 302.5Q544 263 544 197Q544 144 515.5 97.0Q487 50 432.5 21.5Q378 -7 304 -7Q234 -7 178.0 17.5Q122 42 90.0 87.0Q58 132 58 192Z" transform="translate(8621.00 697) scale(1 -1)" fill="#ffffff"/>
  </g>
</svg>
